HIERARCHY
ROOT Hips
{
	OFFSET 0.000000 0.000000 0.000000 
	CHANNELS 6 Xposition Yposition Zposition Zrotation Yrotation Xrotation
	JOINT LeftUpLeg
	{
		OFFSET 1.363060 -1.794630 0.839290 
		CHANNELS 3 Zrotation Yrotation Xrotation
		JOINT LeftLeg
		{
			OFFSET 2.448110 -6.726130 0.000000 
			CHANNELS 3 Zrotation Yrotation Xrotation
			JOINT LeftFoot
			{
				OFFSET 2.562200 -7.039590 0.000000 
				CHANNELS 3 Zrotation Yrotation Xrotation
				JOINT LeftToeBase
				{
					OFFSET 0.157640 -0.433110 2.322550 
					CHANNELS 3 Zrotation Yrotation Xrotation
					End Site
					{
						OFFSET 0.000000 0.000000 0.000000 
					}
				}
			}
		}
	}
	JOINT RightUpLeg
	{
		OFFSET -1.305520 -1.794630 0.839290 
		CHANNELS 3 Zrotation Yrotation Xrotation
		JOINT RightLeg
		{
			OFFSET -2.542530 -6.985550 0.000000 
			CHANNELS 3 Zrotation Yrotation Xrotation
			JOINT RightFoot
			{
				OFFSET -2.568260 -7.056230 0.000000 
				CHANNELS 3 Zrotation Yrotation Xrotation
				JOINT RightToeBase
				{
					OFFSET -0.164730 -0.452590 2.363150 
					CHANNELS 3 Zrotation Yrotation Xrotation
					End Site
					{
						OFFSET 0.000000 0.000000 0.000000 
					}
				}
			}
		}
	}
	JOINT Spine
	{
		OFFSET 0.028270 2.035590 -0.193380 
		CHANNELS 3 Zrotation Yrotation Xrotation
		JOINT Spine1
		{
			OFFSET 0.056720 2.048850 -0.042750 
			CHANNELS 3 Zrotation Yrotation Xrotation
			JOINT Neck1
			{
				OFFSET -0.054170 1.746240 0.172020 
				CHANNELS 3 Zrotation Yrotation Xrotation
				JOINT Head
				{
					OFFSET 0.104070 1.761360 -0.123970 
					CHANNELS 3 Zrotation Yrotation Xrotation
					End Site
					{
						OFFSET 0.000000 0.000000 0.000000 
					}
				}
			}
			JOINT LeftArm
			{
				OFFSET 3.362410 1.200890 -0.311210 
				CHANNELS 3 Zrotation Yrotation Xrotation
				JOINT LeftForeArm
				{
					OFFSET 4.983000 -0.000000 -0.000000 
					CHANNELS 3 Zrotation Yrotation Xrotation
					JOINT LeftHand
					{
						OFFSET 3.483560 -0.000000 -0.000000 
						CHANNELS 3 Zrotation Yrotation Xrotation
						JOINT LeftHandIndex1
						{
							OFFSET 0.715260 -0.000000 -0.000000 
							CHANNELS 3 Zrotation Yrotation Xrotation
							End Site
							{
								OFFSET 0.000000 0.000000 0.000000 
							}
						}
					}
				}
			}
			JOINT RightArm
			{
				OFFSET -3.136600 1.374050 -0.404650 
				CHANNELS 3 Zrotation Yrotation Xrotation
				JOINT RightForeArm
				{
					OFFSET -5.241900 -0.000000 -0.000000 
					CHANNELS 3 Zrotation Yrotation Xrotation
					JOINT RightHand
					{
						OFFSET -3.444170 -0.000000 -0.000000 
						CHANNELS 3 Zrotation Yrotation Xrotation
						JOINT RightHandIndex1
						{
							OFFSET -0.622530 -0.000000 -0.000000 
							CHANNELS 3 Zrotation Yrotation Xrotation
							End Site
							{
								OFFSET 0.000000 0.000000 0.000000 
							}
						}
					}
				}
			}
		}
	}
}
MOTION
Frames: 18
Frame Time: 0.041667
1.217910 17.937522 4.984652 -63.397980 -80.762531 67.809507 -3.795634 -3.440264 -13.702013 9.495742 17.797313 58.288091 0.749292 0.388551 15.844585 0.754400 -5.547500 -15.476900 30.458949 7.270285 -12.144908 -0.577495 -7.366612 19.026590 2.074199 -13.079282 -1.428525 -0.784400 -5.654000 15.783700 3.467763 -3.785677 -4.553261 8.638759 -2.154075 -0.315837 7.613579 -7.924657 16.716238 3.006200 -3.791700 9.617300 -84.425288 1.021813 36.834973 80.110738 -63.454266 -43.155726 -2.047339 1.666138 -8.352689 -7.125000 0.000000 0.000000 83.505527 -0.020621 23.383891 -83.847090 62.743220 -56.499254 -0.237414 -0.404659 -20.747716 7.125000 0.000000 0.000000 
1.055949 17.958643 4.962430 -64.040890 -80.784989 68.379643 -3.658884 -3.305856 -14.750597 9.693247 17.901886 58.871350 0.627345 0.702271 14.814098 0.756000 -5.553300 -15.493700 30.745853 6.965853 -11.141382 -0.500451 -7.130811 18.366895 2.037143 -12.886192 -1.597876 -0.780300 -5.639600 15.742300 3.433114 -3.695180 -4.542953 8.549471 -2.113187 -0.231742 7.696986 -7.935461 16.671206 3.032000 -3.786000 9.592300 -84.198528 1.485662 37.125727 83.167228 -63.216854 -45.365704 -2.104257 1.559673 -7.678726 -7.125000 0.000000 0.000000 83.506726 0.220837 23.453731 -87.254430 62.981287 -59.255517 -0.194360 -0.412185 -20.967068 7.125000 0.000000 0.000000 
0.895390 17.979063 4.941810 -64.806061 -80.803992 69.079846 -3.535450 -3.185812 -15.785701 9.845134 17.979811 59.314872 0.513032 0.964937 13.738385 0.767200 -5.593300 -15.608800 31.023031 6.655473 -10.154420 -0.425836 -6.892002 17.701039 1.993534 -12.665133 -1.735329 -0.778800 -5.634400 15.727200 3.391665 -3.593093 -4.535921 8.424926 -2.067066 -0.167610 7.769893 -7.948720 16.614148 3.052800 -3.781800 9.564000 -83.994211 2.010759 37.446073 86.460623 -62.817756 -47.841120 -2.158714 1.451305 -7.209736 -7.125000 0.000000 0.000000 83.527517 0.432765 23.505713 -90.822565 63.114057 -62.114457 -0.147587 -0.416914 -21.202377 7.125000 0.000000 0.000000 
0.736231 17.998382 4.922591 -65.545607 -80.803276 69.762011 -3.415480 -3.106061 -16.801015 9.952704 18.033335 59.625384 0.409161 1.160435 12.604602 0.774600 -5.619500 -15.684200 31.295050 6.324545 -9.194524 -0.354916 -6.653709 17.039655 1.946844 -12.431481 -1.857477 -0.776900 -5.627700 15.707900 3.345566 -3.492406 -4.532553 8.268028 -2.022052 -0.123901 7.869924 -7.961459 16.555765 3.090900 -3.777200 9.542200 -83.815485 2.579877 37.785403 89.904405 -62.254311 -50.561376 -2.211089 1.342253 -6.959654 -7.125000 0.000000 0.000000 83.556303 0.622979 23.560875 -94.476394 63.120061 -65.019057 -0.099388 -0.419696 -21.451831 7.125000 0.000000 0.000000 
0.579075 18.016200 4.904973 -66.511133 -80.804278 70.687324 -3.303014 -3.019725 -17.816260 10.015931 18.062234 59.799187 0.316792 1.319781 11.478763 0.763000 -5.578100 -15.565100 31.562743 6.025165 -8.259352 -0.287775 -6.417704 16.386119 1.898211 -12.189501 -1.966172 -0.776200 -5.625100 15.700300 3.288719 -3.366219 -4.527496 8.065084 -1.965066 -0.081688 8.008048 -7.977699 16.479603 3.149500 -3.772200 9.520700 -83.644879 3.152159 38.132051 93.404070 -61.547857 -53.490506 -2.255058 1.235931 -6.896940 -7.125000 0.000000 0.000000 83.606250 0.817489 23.605300 -98.150055 62.990526 -67.924564 -0.052742 -0.423118 -21.673589 7.125000 0.000000 0.000000 
0.423821 18.032316 4.888657 -67.592225 -80.804368 71.743061 -3.199773 -2.938884 -18.822663 10.032864 18.066115 59.830298 0.237971 1.444905 10.397162 0.723300 -5.434400 -15.151900 31.818921 5.739771 -7.361174 -0.225836 -6.189212 15.755834 1.848908 -11.944056 -2.071358 -0.775400 -5.622500 15.692800 3.224049 -3.222194 -4.527122 7.834073 -1.899092 -0.063130 8.190607 -7.996270 16.397523 3.233600 -3.767400 9.504400 -83.491919 3.735750 38.446221 96.895664 -60.735708 -56.595273 -2.284704 1.136783 -6.947785 -7.125000 0.000000 0.000000 83.656964 0.998126 23.637422 -101.792747 62.726323 -70.800261 -0.009045 -0.427953 -21.852544 7.125000 0.000000 0.000000 
0.270969 18.046830 4.873342 -68.756458 -80.802003 72.897593 -3.100560 -2.863590 -19.822903 10.002148 18.044310 59.714323 0.171398 1.531792 9.325708 0.679400 -5.270300 -14.681300 32.066651 5.489694 -6.498479 -0.169387 -5.970699 15.154976 1.802720 -11.713041 -2.186843 -0.773000 -5.614000 15.668500 3.152861 -3.062265 -4.535806 7.587528 -1.824926 -0.080053 8.454179 -8.004006 16.329283 3.369400 -3.757600 9.506900 -83.360024 4.322742 38.693026 100.314922 -59.865665 -59.812952 -2.290610 1.052660 -7.040274 -7.125000 0.000000 0.000000 83.702511 1.161848 23.637547 -105.346283 62.339329 -73.607579 0.029819 -0.435340 -21.956533 7.125000 0.000000 0.000000 
0.120420 18.059243 4.859028 -70.094402 -80.808794 74.250903 -3.012071 -2.768635 -20.819858 9.922750 17.995264 59.444092 0.115031 1.607312 8.312016 0.642800 -5.129200 -14.277500 32.299122 5.284945 -5.687268 -0.119848 -5.769681 14.604387 1.758590 -11.490842 -2.305718 -0.766100 -5.589400 15.597600 3.074109 -2.877646 -4.550326 7.325315 -1.737916 -0.117345 8.724591 -8.023871 16.242925 3.506500 -3.753100 9.501000 -83.242083 4.903300 38.849030 103.658387 -58.970830 -63.114175 -2.275009 0.982394 -7.125562 -7.125000 0.000000 0.000000 83.741140 1.322652 23.580150 -108.756459 61.850171 -76.307022 0.062195 -0.445583 -21.965563 7.125000 0.000000 0.000000 
-0.027928 18.069953 4.845815 -71.506256 -80.825496 75.701675 -2.943431 -2.669156 -21.809177 9.795989 17.919162 59.022426 0.065295 1.686752 7.344546 0.624300 -5.056200 -14.068900 32.507495 5.123431 -4.926182 -0.076263 -5.585161 14.100792 1.717964 -11.284462 -2.433365 -0.757900 -5.559800 15.512400 2.988744 -2.673301 -4.573061 7.055225 -1.640442 -0.180208 8.984321 -8.057834 16.139021 3.634800 -3.755600 9.484300 -83.141712 5.468806 38.899187 106.895333 -58.083059 -66.421349 -2.234608 0.927380 -7.173095 -7.125000 0.000000 0.000000 83.766346 1.480565 23.441603 -111.989934 61.281030 -78.871761 0.087288 -0.458356 -21.870802 7.125000 0.000000 0.000000 
-0.174173 18.078562 4.833502 -72.988677 -80.844741 77.246133 -2.885098 -2.561955 -22.785541 9.623671 17.815907 58.453062 0.020016 1.771731 6.390505 0.639300 -5.115400 -14.238000 32.700732 5.009079 -4.221713 -0.039647 -5.422998 13.660290 1.681685 -11.098778 -2.574539 -0.743600 -5.508300 15.364300 2.898855 -2.456639 -4.600754 6.779668 -1.536517 -0.253030 9.215684 -8.109354 16.017669 3.743400 -3.767100 9.455000 -83.063128 6.009229 38.826528 110.018936 -57.216319 -69.680909 -2.175154 0.882924 -7.178604 -7.125000 0.000000 0.000000 83.774137 1.654678 23.216570 -115.003153 60.658040 -81.264697 0.105519 -0.472286 -21.683650 7.125000 0.000000 0.000000 
-0.318917 18.085469 4.822291 -74.574549 -80.861476 78.914306 -2.832442 -2.443838 -23.741841 9.407905 17.684367 57.737573 -0.026697 1.902943 5.496339 0.674200 -5.250600 -14.624600 32.888049 4.953727 -3.556648 -0.008346 -5.279710 13.272243 1.651470 -10.941214 -2.735699 -0.727900 -5.451300 15.200500 2.805637 -2.223859 -4.633129 6.498397 -1.424199 -0.337860 9.391735 -8.180505 15.869530 3.816000 -3.788800 9.405200 -83.011058 6.516638 38.641918 113.020516 -56.374863 -72.842429 -2.102848 0.846278 -7.172507 -7.125000 0.000000 0.000000 83.761729 1.845537 22.894910 -117.781752 60.002761 -83.471185 0.117318 -0.486286 -21.425556 7.125000 0.000000 0.000000 
-0.462459 18.090674 4.812281 -76.112729 -80.863769 80.548568 -2.778918 -2.339857 -24.663835 9.149872 17.523933 56.878619 -0.073496 2.063100 4.642073 0.719400 -5.420000 -15.110400 33.074155 4.928079 -2.933544 0.017940 -5.154845 12.935649 1.626622 -10.809875 -2.923505 -0.710200 -5.386100 15.013200 2.711773 -1.993140 -4.668851 6.212644 -1.312901 -0.426624 9.535181 -8.264090 15.713728 3.869000 -3.817900 9.348700 -82.994672 6.992316 38.345044 115.895648 -55.555023 -75.872551 -2.023961 0.815400 -7.181842 -7.125000 0.000000 0.000000 83.723739 2.068711 22.488563 -120.306732 59.336942 -85.473816 0.124259 -0.499166 -21.122208 7.125000 0.000000 0.000000 
-0.604701 18.094077 4.803573 -77.733388 -80.858379 82.289678 -2.726085 -2.230142 -25.556957 8.849996 17.331659 55.872734 -0.124834 2.274767 3.860286 0.757100 -5.556900 -15.504200 33.254921 4.943830 -2.354505 0.040031 -5.047408 12.647683 1.604579 -10.691342 -3.132680 -0.691000 -5.314000 14.806500 2.616654 -1.753636 -4.709428 5.925747 -1.197575 -0.522715 9.668804 -8.349557 15.557452 3.919500 -3.849600 9.292700 -83.022573 7.428298 37.953065 118.631035 -54.752524 -78.736092 -1.943017 0.787083 -7.225842 -7.125000 0.000000 0.000000 83.655636 2.324618 22.000100 -122.572021 58.679536 -87.266745 0.126883 -0.510406 -20.799156 7.125000 0.000000 0.000000 
-0.745140 18.095979 4.796766 -79.486501 -80.843281 84.185568 -2.674699 -2.117142 -26.417981 8.510245 17.106021 54.723384 -0.180157 2.525405 3.131632 0.786000 -5.659600 -15.800000 33.422078 4.975060 -1.839622 0.056891 -4.962019 12.421756 1.578414 -10.552637 -3.351979 -0.671600 -5.240600 14.596000 2.519095 -1.500824 -4.755427 5.630631 -1.076260 -0.629818 9.803963 -8.433365 15.413085 3.975500 -3.882000 9.246200 -83.093965 7.833891 37.486058 121.233438 -53.957343 -81.430100 -1.863175 0.759989 -7.320644 -7.125000 0.000000 0.000000 83.559706 2.623040 21.432132 -124.583352 58.044653 -88.854981 0.126110 -0.520422 -20.479210 7.125000 0.000000 0.000000 
-0.884479 18.096380 4.791260 -81.274151 -80.813575 86.134517 -2.615641 -2.015082 -27.235623 8.129618 16.843008 53.421740 -0.240547 2.816799 2.473228 0.802400 -5.717100 -15.965900 33.584248 5.026071 -1.365815 0.070971 -4.889300 12.231308 1.552247 -10.414520 -3.576495 -0.650900 -5.160800 14.367800 2.421620 -1.243115 -4.806456 5.338071 -0.953033 -0.744362 9.962400 -8.505793 15.286985 4.053400 -3.911200 9.214900 -83.213493 8.199816 36.961118 123.673929 -53.172567 -83.921376 -1.786529 0.734276 -7.461025 -7.125000 0.000000 0.000000 83.432947 2.955454 20.794961 -126.362805 57.440684 -90.256252 0.121973 -0.529760 -20.176196 7.125000 0.000000 0.000000 
-1.022616 18.095178 4.787056 -83.093792 -80.773227 88.134979 -2.553362 -1.928276 -27.998532 7.710089 16.540167 51.969126 -0.305288 3.138813 1.880761 0.813500 -5.755600 -16.076900 33.729917 5.076872 -0.945410 0.081256 -4.833612 12.088555 1.523284 -10.263185 -3.800675 -0.626600 -5.065400 14.095300 2.325004 -0.983395 -4.858515 5.050631 -0.829157 -0.853514 10.116730 -8.573247 15.172815 4.134500 -3.939500 9.193100 -83.383552 8.520812 36.388398 125.949917 -52.396739 -86.208620 -1.714420 0.708637 -7.637844 -7.125000 0.000000 0.000000 83.271208 3.330158 20.101033 -127.914755 56.879786 -91.474797 0.113668 -0.539213 -19.906052 7.125000 0.000000 0.000000 
-1.160053 18.092576 4.784253 -84.878290 -80.726200 90.113165 -2.490773 -1.870218 -28.693321 7.252049 16.193156 50.358613 -0.376915 3.501593 1.383276 0.818000 -5.771000 -16.121400 33.855030 5.121068 -0.562303 0.089624 -4.787168 11.971998 1.491845 -10.100907 -4.018974 -0.600200 -4.959500 13.793000 2.230678 -0.725323 -4.911322 4.773271 -0.706107 -0.957821 10.237814 -8.635860 15.054209 4.200800 -3.967800 9.165800 -83.606947 8.798589 35.784283 128.051882 -51.635755 -88.284160 -1.644223 0.685230 -7.840450 -7.125000 0.000000 0.000000 83.070914 3.734332 19.355275 -129.257853 56.367500 -92.526559 0.100805 -0.550443 -19.674823 7.125000 0.000000 0.000000 
-1.297289 18.088572 4.782351 -86.626254 -80.671594 92.064538 -2.421903 -1.844651 -29.304989 6.758406 15.798641 48.591340 -0.454338 3.893081 0.972383 0.824000 -5.791600 -16.181100 33.962639 5.156176 -0.210688 0.095551 -4.751510 11.885623 1.458038 -9.927960 -4.231623 -0.570100 -4.835500 13.440100 2.139559 -0.473978 -4.961917 4.509194 -0.586149 -1.048746 10.329846 -8.691390 14.937962 4.255400 -3.994800 9.137500 -83.884136 9.033792 35.153505 129.972263 -50.895998 -90.148109 -1.577789 0.662404 -8.052293 -7.125000 0.000000 0.000000 82.834890 4.170360 18.568879 -130.389406 55.915309 -93.411151 0.083752 -0.562672 -19.493821 7.125000 0.000000 0.000000 
